# xmcd CD database file
#
# Track frame offsets:
#	150
#	14503
#	27559
#	40348
#	52636
#	67600
#	81686
#	99032
#	114513
#	130676
#	145961
#	159687
#	178260
#	194979
#
# Disc length: 2743 seconds
#
# Revision: 3
# Processed by: cddbd v1.4PL0 Copyright (c) Steve Scherf et al.
# Submitted via: CDex 1.50beta10
#
DISCID=c10ab50e
DTITLE=Diversos - Acervo Sertanejo
DYEAR=2002
DGENRE=Country
TTITLE0=Saudade da Minha Terra
TTITLE1=João de Barro
TTITLE2=Pingo d'água
TTITLE3=Não Beba Mais Não
TTITLE4=Boneca Cobiçada
TTITLE5=Chalana
TTITLE6=Mágoa de Boiadeiro
TTITLE7=O Menino da Porteira
TTITLE8=Flor do Cafezal
TTITLE9=Viola Cabloca
TTITLE10=Não me Abandones
TTITLE11=Romaria
TTITLE12=Rio de Lágrimas
TTITLE13=Marvada Pinga
EXTD=YEAR: 2002
EXTT0=
EXTT1=
EXTT2=
EXTT3=
EXTT4=
EXTT5=
EXTT6=
EXTT7=
EXTT8=
EXTT9=
EXTT10=
EXTT11=
EXTT12=
EXTT13=
PLAYORDER=
